<?xml version="1.0" encoding="UTF-8"?>
<svg version="1.1" xmlns="http://www.w3.org/2000/svg" width="1024" height="1024">
<path d="M0 0 C337.92 0 675.84 0 1024 0 C1024 337.92 1024 675.84 1024 1024 C686.08 1024 348.16 1024 0 1024 C0 686.08 0 348.16 0 0 Z " fill="#061C30" transform="translate(0,0)"/>
<path d="M0 0 C337.92 0 675.84 0 1024 0 C1024 337.92 1024 675.84 1024 1024 C686.08 1024 348.16 1024 0 1024 C0 686.08 0 348.16 0 0 Z M321 101 C319.34262974 101.74649756 317.68508795 102.49261445 316.02734375 103.23828125 C289.37512393 115.379602 264.06109023 130.97616564 241 149 C239.79997354 149.92381962 238.59945762 150.84700381 237.3984375 151.76953125 C217.71315579 166.96966193 198.12539777 183.70687845 181.9765625 202.6875 C180.40870309 204.52183354 178.81985345 206.32711383 177.2109375 208.125 C155.69812106 232.30469451 137.43828842 259.59217141 122 288 C121.57315918 288.77150391 121.14631836 289.54300781 120.70654297 290.33789062 C92.71045676 340.98213403 75.60218767 398.73807641 71.3125 456.4375 C71.24962799 457.26472565 71.18675598 458.09195129 71.12197876 458.94424438 C65.21520967 538.23231249 78.72376256 620.16310625 115.92382812 690.9375 C117.14149853 693.27118412 118.32845749 695.61940798 119.515625 697.96875 C125.69163965 710.09701066 132.4822599 721.656961 140 733 C140.45874512 733.69432129 140.91749023 734.38864258 141.39013672 735.10400391 C153.48201313 753.30060151 167.01681908 770.35111856 181.734375 786.48828125 C183.00026733 787.89167568 184.2591553 789.30177478 185.49047852 790.7355957 C190.23793925 796.25607482 195.27798593 801.42757456 200.4375 806.5625 C201.24509766 807.37396484 202.05269531 808.18542969 202.88476562 809.02148438 C207.76048519 813.88934621 212.76085077 818.52748616 218 823 C218.96421875 823.845625 219.9284375 824.69125 220.921875 825.5625 C230.57083468 833.87873044 240.7286535 841.47309233 251 849 C251.73798828 849.54333984 252.47597656 850.08667969 253.23632812 850.64648438 C271.14954368 863.78064518 290.38584342 874.62993564 310 885 C310.87849609 885.46792969 311.75699219 885.93585937 312.66210938 886.41796875 C352.0786451 907.28039018 395.98935222 921.10940713 440 928 C441.6085083 928.25692627 441.6085083 928.25692627 443.24951172 928.51904297 C471.76014173 932.99853197 500.1548101 934.54468433 529 934 C529.85867676 933.99129883 530.71735352 933.98259766 531.60205078 933.97363281 C561.14286376 933.62531666 591.27264149 928.58947838 620 922 C620.98033203 921.77763672 621.96066406 921.55527344 622.97070312 921.32617188 C693.59364143 904.97600993 761.31858667 868.80539465 814.375 819.4140625 C816.43740539 817.51738612 818.5266855 815.68676917 820.65234375 813.86328125 C825.85196415 809.32840237 830.69629943 804.44954083 835.5625 799.5625 C836.46935547 798.65951172 837.37621094 797.75652344 838.31054688 796.82617188 C843.41667684 791.71263635 848.31805789 786.503282 853 781 C853.845625 780.03578125 854.69125 779.0715625 855.5625 778.078125 C872.63701353 758.26731123 887.85778334 736.62572582 900.8828125 713.94482422 C901.65569454 712.5993744 902.43475759 711.25746329 903.21875 709.91845703 C933.18519369 658.56209374 950.60401287 599.9231357 957 541 C957.11714355 539.96456055 957.23428711 538.92912109 957.35498047 537.86230469 C967.69212142 443.64533205 944.25074236 345.13468561 863 222 C859.11009977 217.23613039 855.08678224 212.59537807 851 208 C849.69095703 206.52273437 849.69095703 206.52273437 848.35546875 205.015625 C842.23997487 198.21668695 835.8256303 191.70164361 829.38616943 185.2109375 C827.98146903 183.79434139 826.58075592 182.37379492 825.18017578 180.953125 C819.09740451 174.86269694 812.71848456 169.37236342 806 164 C804.91024792 163.07653202 803.82561694 162.14692534 802.75 161.20703125 C783.51024177 144.45423041 762.14167798 130.57817987 740 118 C739.1740332 117.52949219 738.34806641 117.05898437 737.49707031 116.57421875 C648.14076276 65.97124443 543.19251829 49.42427532 321 101 Z " fill="#FEFEFE" transform="translate(0,0)"/>
<path d="M0 0 C4.15151027 3.49562065 8.17345347 7.04774659 12.01780701 10.88409424 C12.9529866 11.81500885 13.8881662 12.74592346 14.85168457 13.70504761 C15.86528858 14.71900099 16.87883654 15.73301041 17.89233398 16.74707031 C18.97689894 17.82863855 20.06166712 18.91000303 21.1466217 19.99118042 C24.07415773 22.90993272 26.99849044 25.83187367 29.92195773 28.75470066 C31.7487999 30.5808301 33.57635304 32.40624488 35.40416145 34.23140717 C41.7803473 40.59836425 48.1539678 46.96787627 54.52514648 53.33984375 C60.4674917 59.28279184 66.41541535 65.22011641 72.36593002 71.15488362 C77.47786732 76.25377303 82.58597008 81.35648216 87.69106728 86.46221995 C90.73919733 89.51060544 93.78887361 92.55740442 96.84240532 95.60037994 C99.70731908 98.45565694 102.56745188 101.31563569 105.42389488 104.17938614 C106.47514919 105.23169123 107.52812971 106.28227493 108.58291245 107.33104324 C110.01689405 108.75737286 111.44419045 110.19041438 112.87107849 111.62384033 C113.67316459 112.42538166 114.47525068 113.22692299 115.30164242 114.05275345 C117 116 117 116 117 118 C116.34 118 115.68 118 115 118 C115 118.66 115 119.32 115 120 C113.390625 121.55078125 113.390625 121.55078125 111.25 123.3125 C108.89939355 125.30558414 106.93081642 127.08647948 105 129.5 C103.20071455 131.74910681 101.48303975 133.36200559 99.29589844 135.20898438 C95.33946717 138.63594779 91.78931972 142.29274066 88.265625 146.15625 C79.83679486 155.26297684 71.1343693 164.08607114 62.37060547 172.86962891 C59.70476407 175.5454045 57.04976058 178.23166708 54.39453125 180.91796875 C52.69596525 182.62304634 50.99677093 184.3274983 49.296875 186.03125 C48.50633728 186.83413452 47.71579956 187.63701904 46.90130615 188.4642334 C46.16913879 189.19339966 45.43697144 189.92256592 44.68261719 190.67382812 C44.04169128 191.31839966 43.40076538 191.96297119 42.74041748 192.6270752 C41 194 41 194 38 194 C36.81398371 192.61066663 35.63671729 191.21262482 34.51171875 189.7734375 C32.85180081 187.82614359 31.06930512 186.22474925 29.125 184.5625 C26.33688474 182.17723029 23.62668341 179.75037734 21 177.1875 C20.13375 176.34251953 20.13375 176.34251953 19.25 175.48046875 C18 174 18 174 18 172 C17.34 172 16.68 172 16 172 C16 171.34 16 170.68 16 170 C15.44828125 169.77570313 14.8965625 169.55140625 14.328125 169.3203125 C11.28788256 167.59614817 9.18574327 165.37484178 6.75 162.875 C5.85796875 161.96492187 4.9659375 161.05484375 4.046875 160.1171875 C3.03367187 159.06917969 3.03367187 159.06917969 2 158 C-1.45124531 159.54435977 -3.17368628 161.32725076 -5.5234375 164.296875 C-7.76106672 166.87784415 -10.35505533 168.99393138 -12.94921875 171.20703125 C-16.124542 173.983171 -19.04932143 176.98964478 -22 180 C-23.66587144 181.66746152 -25.33265452 183.33401242 -27 185 C-27.79728516 185.79728516 -28.59457031 186.59457031 -29.41601562 187.41601562 C-74.61067708 232.61067708 -119.80533854 277.80533854 -165 323 C-163.44306383 326.72352313 -161.15969021 329.08934555 -158.32012939 331.92710876 C-157.84079476 332.40885781 -157.36146013 332.89060686 -156.8676002 333.38695437 C-155.26183102 334.99835457 -153.64901941 336.60251327 -152.03613281 338.20678711 C-150.88260362 339.36138937 -149.72950755 340.51642448 -148.57681274 341.67185974 C-145.4448347 344.80868669 -142.30663876 347.93922458 -139.16716862 351.06855083 C-135.88084459 354.34608917 -132.59979589 357.62890064 -129.3180542 360.911026 C-123.80333059 366.42481282 -118.28474714 371.9347123 -112.76367188 377.44213867 C-106.38702866 383.80307572 -100.01560731 390.16920448 -93.64717984 396.53836626 C-86.86231621 403.32390648 -80.0736451 410.10562764 -73.2838583 416.8862412 C-71.33083747 418.83713424 -69.37852501 420.78873377 -67.42636871 422.74049187 C-64.35240724 425.81344553 -61.27589602 428.88382432 -58.19742966 431.95226479 C-57.07029913 433.076485 -55.94400079 434.2015403 -54.81861496 435.32750702 C-53.27731387 436.86930238 -51.73295317 438.40796883 -50.18780518 439.94590759 C-49.32576099 440.80627593 -48.46371681 441.66664427 -47.57555008 442.55308437 C-44.8124544 445.17817874 -41.93700632 447.57248156 -39 450 C-37.83877312 451.23781844 -36.70857167 452.5061636 -35.625 453.8125 C-30.1047241 460.26697644 -24.11986503 466.057802 -17.56640625 471.45703125 C-16 473 -16 473 -15 476 C-14.43796875 476.2784375 -13.8759375 476.556875 -13.296875 476.84375 C-10.05969535 478.47335064 -7.76380516 480.94660736 -5.25 483.5 C-4.74339844 483.99886719 -4.23679687 484.49773437 -3.71484375 485.01171875 C0 488.74658861 0 488.74658861 0 491 C8.14364254 484.17554445 15.51823323 476.59251861 23 469.0625 C24.36044318 467.69703255 25.72111831 466.33179614 27.08203125 464.96679688 C30.3907031 461.64719114 33.69621322 458.32446727 37 455 C40.89043633 456.57795915 43.47695368 459.23554381 46.3515625 462.19140625 C46.8516684 462.69671371 47.35177429 463.20202118 47.86703491 463.72264099 C49.45786943 465.33123084 51.04183084 466.94636819 52.625 468.5625 C54.21617776 470.18130238 55.80879701 471.79861821 57.40438843 473.41307068 C58.39547098 474.41640427 59.38386808 475.42239908 60.36929321 476.43128967 C62.92858681 479.05171465 62.92858681 479.05171465 66 481 C66 481.66 66 482.32 66 483 C66.56354187 483.2392067 67.12708374 483.47841339 67.70770264 483.72486877 C70.49650332 485.27618881 72.4126125 487.15086011 74.67675781 489.40209961 C75.59741028 490.31322006 76.51806274 491.22434052 77.46661377 492.16307068 C78.46244724 493.1591655 79.45794305 494.155598 80.453125 495.15234375 C81.47851959 496.17385048 82.50413727 497.19513331 83.52996826 498.21620178 C85.67509265 500.35387485 87.81631331 502.49536918 89.95507812 504.6394043 C92.69958251 507.38971856 95.4553182 510.12846613 98.21428299 512.86426449 C100.33326454 514.96853885 102.44530487 517.07967292 104.55538177 519.192873 C105.56896255 520.20593959 106.58491637 521.21663758 107.6032486 522.2249279 C109.02290803 523.63229234 110.43213476 525.05015733 111.84082031 526.46850586 C112.64594055 527.27299667 113.45106079 528.07748749 114.28057861 528.90635681 C116 531 116 531 116 534 C114.62724304 535.45096684 114.62724304 535.45096684 112.6706543 537.02394104 C107.2322784 541.58689442 102.27623738 546.59124855 97.26953125 551.61694336 C96.21439253 552.67236472 95.15903243 553.72756481 94.10346985 554.78256226 C91.26088257 557.62486458 88.42137234 560.47022253 85.58243561 563.31617045 C82.60672951 566.29816054 79.62815979 569.27728758 76.64990234 572.25672913 C71.02056022 577.88916976 65.3937704 583.52415289 59.76791 589.16007096 C53.3587103 595.58047793 46.94664468 601.99801946 40.53434563 608.41533077 C27.3530558 621.60705144 14.1753404 634.80233743 1 648 C-2.69004118 646.27111065 -5.08608174 644.17193049 -7.984375 641.28125 C-8.91894531 640.34925781 -9.85351562 639.41726563 -10.81640625 638.45703125 C-11.2973877 637.97186035 -11.77836914 637.48668945 -12.27392578 636.98681641 C-13.75204848 635.49793661 -15.24059911 634.02008349 -16.73046875 632.54296875 C-17.65988281 631.61097656 -18.58929688 630.67898438 -19.546875 629.71875 C-20.40120117 628.86216797 -21.25552734 628.00558594 -22.13574219 627.12304688 C-24 625 -24 625 -24 623 C-24.99 622.67 -25.98 622.34 -27 622 C-27 621.34 -27 620.68 -27 620 C-27.66 620 -28.32 620 -29 620 C-30.33984375 618.63671875 -30.33984375 618.63671875 -31.9375 616.6875 C-35.02314544 613.05847046 -38.25956858 609.6188383 -41.625 606.25 C-42.97464844 604.89648438 -42.97464844 604.89648438 -44.3515625 603.515625 C-46.88024565 601.02289864 -46.88024565 601.02289864 -49.3984375 599.171875 C-51.58465026 597.34674843 -53.217357 595.64946893 -55.0405283 593.49300194 C-59.44861402 588.40888166 -64.18567553 583.68520517 -68.95310974 578.94009399 C-69.94932091 577.94488071 -70.94530731 576.94944239 -71.94109017 575.95380056 C-74.65941503 573.23711083 -77.38083251 570.52353812 -80.10277689 567.81047559 C-83.04455241 564.87716852 -85.98337835 561.94090898 -88.92253113 559.00497437 C-94.00922597 553.92456263 -99.09764018 548.84587837 -104.18713188 543.76826859 C-111.54659493 536.42580726 -118.90232347 529.07961343 -126.25696064 521.73231857 C-138.19212942 509.80908114 -150.12880407 497.88735275 -162.06713867 485.96728516 C-162.78092771 485.25458624 -163.49471674 484.54188733 -164.23013575 483.80759148 C-174.37758738 473.67577671 -184.52651894 463.54544563 -194.67603058 453.41569452 C-195.39194196 452.70117646 -196.10785333 451.9866584 -196.84545898 451.25048828 C-197.56049886 450.53684194 -198.27553873 449.82319559 -199.01224648 449.0879236 C-210.91736905 437.20580292 -222.81865705 425.31985013 -234.71678311 413.43072355 C-242.05709262 406.09627688 -249.40065424 398.76511605 -256.74838025 391.43809919 C-261.77469941 386.42544616 -266.79744586 381.40923228 -271.81734227 376.39014728 C-274.71705116 373.49114507 -277.6184109 370.59384411 -280.52410889 367.70084381 C-283.17975998 365.0567377 -285.83083939 362.40813873 -288.47823895 359.75577156 C-289.89916464 358.33462106 -291.32506332 356.91844823 -292.75108713 355.50241339 C-293.58278518 354.66734995 -294.41448322 353.8322865 -295.27138424 352.97191811 C-295.99665276 352.24795109 -296.72192129 351.52398408 -297.46916765 350.77807868 C-299 349 -299 349 -299 347 C-299.61875 346.7525 -300.2375 346.505 -300.875 346.25 C-303.38710296 344.77229238 -303.76107344 343.56044823 -305 341 C-305.99 340.67 -306.98 340.34 -308 340 C-309.32421875 338.6171875 -309.32421875 338.6171875 -310.6875 336.875 C-313.58075696 333.33475845 -316.79600867 330.52280451 -320.36328125 327.67578125 C-322.32388464 325.66838542 -322.84378266 324.80359107 -323 322 C-321.25570679 319.6544342 -321.25570679 319.6544342 -318.60302734 317.03540039 C-317.88377579 316.31505363 -317.88377579 316.31505363 -317.1499939 315.58015442 C-315.55687117 313.99052315 -313.94674037 312.41935299 -312.3359375 310.84765625 C-311.22438635 309.74543481 -310.11393719 308.64210102 -309.00454712 307.53770447 C-306.0745849 304.62685836 -303.12993827 301.73131564 -300.18200684 298.83868408 C-297.19971485 295.9072621 -294.2312524 292.9619138 -291.26171875 290.01757812 C-286.02090297 284.82464295 -280.76800835 279.64420441 -275.50619507 274.47254944 C-273.76974546 272.75941164 -272.0412768 271.03816084 -270.31924438 269.31053162 C-267.42051439 266.42269135 -264.36202252 263.75275206 -261.28125 261.0625 C-256.9437165 257.14089437 -253.01074647 252.92639908 -249.125 248.5625 C-245.12083284 244.13882401 -240.93857319 240.01630386 -236.53172302 235.99728394 C-226.40852544 226.64418793 -216.71744267 216.85276597 -206.98321402 207.09927964 C-204.19797034 204.30965718 -201.40977478 201.52298751 -198.6219635 198.7359314 C-193.80946721 193.9239557 -188.99878357 189.11017422 -184.18937874 184.2951088 C-177.23605731 177.3336088 -170.27992728 170.37492065 -163.32314115 163.41688322 C-152.03223264 152.1237941 -140.74355216 140.82848059 -129.45629883 129.53173828 C-118.50142621 118.56766577 -107.54548823 107.60465961 -96.58813477 96.64306641 C-95.91104063 95.96570954 -95.23394649 95.28835268 -94.53633434 94.59046985 C-91.13904289 91.19187322 -87.74173068 87.79329734 -84.34440815 84.39473176 C-56.22638775 56.26636965 -28.11199408 28.13438486 0 0 Z " fill="#12293F" transform="translate(512,165)"/>
<path d="M0 0 C2.93030481 1.32337514 5.00421501 2.75492517 7.27208328 5.02598763 C7.90009189 5.65001413 8.5281005 6.27404064 9.17513967 6.91697705 C9.8560771 7.60374016 10.53701453 8.29050328 11.23858643 8.99807739 C11.96887645 9.72665856 12.69916646 10.45523973 13.45158648 11.20589912 C15.90382084 13.6548324 18.34882644 16.11085833 20.79394531 18.56689453 C22.54777809 20.32129129 24.30205106 22.0752481 26.05673218 23.82879639 C29.83673575 27.60834414 33.6136489 31.39093974 37.38779449 35.17633438 C42.84457867 40.64937219 48.30687669 46.11687945 53.77053651 51.58305238 C62.63479545 60.45168864 71.4945788 69.32478209 80.3515625 78.20068359 C88.95533884 86.82281778 97.56121311 95.44284903 106.16992188 104.06005859 C106.70055619 104.59121836 107.23119051 105.12237813 107.77790466 105.66963364 C110.43995239 108.33429144 113.10204146 110.99890793 115.7641511 113.66350389 C137.8491818 135.76926823 159.9268803 157.88234193 182 180 C180.67662486 182.93030481 179.24507483 185.00421501 176.97401237 187.27208328 C176.34998587 187.90009189 175.72595936 188.5281005 175.08302295 189.17513967 C174.39625984 189.8560771 173.70949672 190.53701453 173.00192261 191.23858643 C172.27334144 191.96887645 171.54476027 192.69916646 170.79410088 193.45158648 C168.3451676 195.90382084 165.88914167 198.34882644 163.43310547 200.79394531 C161.67870871 202.54777809 159.9247519 204.30205106 158.17120361 206.05673218 C154.39165586 209.83673575 150.60906026 213.6136489 146.82366562 217.38779449 C141.35062781 222.84457867 135.88312055 228.30687669 130.41694762 233.77053651 C121.54831136 242.63479545 112.67521791 251.4945788 103.79931641 260.3515625 C95.17718222 268.95533884 86.55715097 277.56121311 77.93994141 286.16992188 C77.40878164 286.70055619 76.87762187 287.23119051 76.33036636 287.77790466 C73.66570856 290.43995239 71.00109207 293.10204146 68.33649611 295.7641511 C46.23073177 317.8491818 24.11765807 339.9268803 2 362 C-1.71965283 360.25790189 -4.10850421 358.13915945 -7.0246582 355.21826172 C-7.51143036 354.73338791 -7.99820251 354.2485141 -8.49972534 353.74894714 C-10.10500191 352.14736926 -11.70297043 350.53871098 -13.30078125 348.9296875 C-14.42136211 347.80791328 -15.54231426 346.68650985 -16.66362 345.56546021 C-19.01445465 343.21306177 -21.36189497 340.85734521 -23.70678711 338.49902344 C-26.69396251 335.49494676 -29.68758868 332.49740523 -32.68360615 329.50214958 C-35.0012151 327.18426678 -37.31619357 324.86377149 -39.63033104 322.54242325 C-40.73201042 321.43758775 -41.83427352 320.33333394 -42.93715858 319.229702 C-48.31838903 313.84084086 -53.62140449 308.43387111 -58.57807922 302.64529419 C-60.42965699 300.50284703 -62.39273674 298.49402866 -64.40234375 296.5 C-65.14677734 295.75878906 -65.89121094 295.01757812 -66.65820312 294.25390625 C-67.78645508 293.13822266 -67.78645508 293.13822266 -68.9375 292 C-70.10635742 290.83791016 -70.10635742 290.83791016 -71.29882812 289.65234375 C-73.1969242 287.76589243 -75.09733149 285.88183755 -77 284 C-72.08791499 278.08195375 -66.79223316 272.64420576 -61.35449219 267.20922852 C-60.39114949 266.24288815 -59.42801021 265.27634496 -58.46505737 264.30961609 C-55.86860334 261.70438898 -53.26897197 259.10235568 -50.66844845 256.50119138 C-49.04333083 254.87536052 -47.41892829 253.24881871 -45.79477692 251.62202263 C-40.12807392 245.94609509 -34.45882108 240.2727291 -28.78710938 234.60180664 C-23.49853892 229.31383926 -18.21559733 224.02029363 -12.93520617 218.72415978 C-8.39682184 214.17272697 -3.8546181 209.62513019 0.69061542 205.08053726 C3.40365374 202.36775431 6.11510467 199.65342921 8.82273102 196.93524361 C11.36283106 194.38550558 13.9076296 191.84055504 16.45620346 189.2992878 C17.84035519 187.91668929 19.21954019 186.52912414 20.59860229 185.14144897 C21.41726776 184.326978 22.23593323 183.51250702 23.07940674 182.6733551 C23.79245594 181.95976113 24.50550514 181.24616716 25.2401619 180.51094913 C27 179 27 179 29 179 C22.80413033 171.55764895 15.9277465 164.81384685 9.0625 158 C7.88973991 156.83226626 6.71721202 155.66429926 5.54492188 154.49609375 C2.69928311 151.66136766 -0.14947453 148.82981176 -3 146 C-8.96125222 150.94182719 -14.42035041 156.28501829 -19.88256836 161.76904297 C-20.85874287 162.74550007 -21.83513866 163.72173601 -22.81173706 164.69776917 C-25.44364693 167.32939387 -28.07247704 169.96407521 -30.70073771 172.59934378 C-33.45490298 175.35978942 -36.21192841 178.1173755 -38.96864319 180.87527466 C-44.18010986 186.08984089 -49.38902365 191.30694943 -54.5970102 196.52499115 C-60.52977656 202.4689615 -66.46540599 208.41006931 -72.40126979 214.35094619 C-84.60402023 226.56412985 -96.80319582 238.7808781 -109 251 C-111.80387058 249.72113231 -113.85248535 248.39618952 -116.02459717 246.21591187 C-116.87846764 245.36616539 -116.87846764 245.36616539 -117.74958801 244.49925232 C-118.36170639 243.87994339 -118.97382477 243.26063446 -119.60449219 242.62255859 C-120.25856552 241.96877731 -120.91263885 241.31499603 -121.58653259 240.6414032 C-123.74475514 238.48178862 -125.89580936 236.3151788 -128.046875 234.1484375 C-129.54287809 232.64870384 -131.03932369 231.14941147 -132.53619385 229.65054321 C-136.47300225 225.70610188 -140.40376734 221.75569106 -144.33331299 217.80401611 C-148.34488498 213.77197847 -152.36213094 209.74560286 -156.37890625 205.71875 C-164.25817445 197.81803787 -172.13107125 189.9110091 -180 182 C-178.72274144 179.20183837 -177.40038514 177.15053359 -175.22782612 174.97893715 C-174.66036743 174.40687967 -174.09290875 173.83482219 -173.50825435 173.24542964 C-172.8846303 172.62694915 -172.26100625 172.00846866 -171.6184845 171.37124634 C-170.95609557 170.706443 -170.29370665 170.04163966 -169.61124533 169.35669076 C-167.38594768 167.12574838 -165.15356055 164.90203832 -162.92114258 162.67822266 C-161.32589169 161.08189905 -159.73107381 159.48514263 -158.13665771 157.88798523 C-153.80011193 153.54658507 -149.45732945 149.2114729 -145.11329103 144.87757158 C-140.5688839 140.34194099 -136.02974257 135.80104622 -131.48991394 131.26083374 C-123.86085679 123.63271378 -116.22796272 116.00845503 -108.5925293 108.38671875 C-100.74450881 100.55276942 -92.89998246 92.71534337 -85.05932617 84.87402344 C-84.33573066 84.15036799 -84.33573066 84.15036799 -83.59751705 83.41209324 C-83.11593978 82.93047562 -82.63436252 82.44885799 -82.138192 81.9526459 C-72.75336793 72.56709573 -63.36468586 63.18541164 -53.97491241 53.80481291 C-51.27138838 51.10341817 -48.56857387 48.40131529 -45.8659153 45.69905472 C-41.61249792 41.44664407 -37.35653115 37.19680102 -33.09860229 32.94890785 C-31.53811185 31.39133137 -29.97845802 29.83291618 -28.41971397 28.273592 C-26.28759238 26.14097732 -24.15240863 24.01147525 -22.01643372 21.88272095 C-21.40396327 21.2687019 -20.79149283 20.65468286 -20.16046268 20.02205718 C-16.73252227 16.6131577 -13.21019016 13.39250788 -9.49743861 10.29521501 C-7.5132698 8.57900093 -5.81383748 6.69153526 -4.125 4.6875 C-3.26261719 3.67236328 -3.26261719 3.67236328 -2.3828125 2.63671875 C-1.92648437 2.09660156 -1.47015625 1.55648438 -1 1 C-0.67 0.67 -0.34 0.34 0 0 Z " fill="#AC9254" transform="translate(654,308)"/>
<path d="M0 0 C0.91222891 3.07877257 1.32903218 5.79193623 1 9 C-0.515625 10.65234375 -0.515625 10.65234375 -2 12 C-1.85904936 10.3745692 -1.71207913 8.74965949 -1.5625 7.125 C-1.48128906 6.22007812 -1.40007812 5.31515625 -1.31640625 4.3828125 C-1 2 -1 2 0 0 Z " fill="#0E1722" transform="translate(82,393)"/>
<path d="M0 0 C0.99 0.33 1.98 0.66 3 1 C0.6875 3.5 0.6875 3.5 -2 6 C-2.99 6 -3.98 6 -5 6 C-3.35 4.02 -1.7 2.04 0 0 Z " fill="#BA9D58" transform="translate(654,308)"/>
</svg>
