<?xml version="1.0" encoding="UTF-8"?>
<svg version="1.1" xmlns="http://www.w3.org/2000/svg" width="1024" height="1024">
<path d="M0 0 C337.92 0 675.84 0 1024 0 C1024 337.92 1024 675.84 1024 1024 C686.08 1024 348.16 1024 0 1024 C0 686.08 0 348.16 0 0 Z " fill="#FEFDFD" transform="translate(0,0)"/>
<path d="M0 0 C3.0651193 1.46763024 5.18696012 2.93906736 7.59405518 5.35354614 C8.28951447 6.0462561 8.98497375 6.73896606 9.70150757 7.45266724 C10.45388702 8.21223724 11.20626648 8.97180725 11.98144531 9.75439453 C12.7818222 10.55447937 13.5821991 11.35456421 14.40682983 12.17889404 C17.05202947 14.82548737 19.69007385 17.47909528 22.328125 20.1328125 C24.16043219 21.96884966 25.99318134 23.80444586 27.82635498 25.63961792 C32.15775434 29.97787419 36.48467104 34.32055504 40.80944896 38.66541088 C45.73415149 43.61247844 50.6645433 48.55385917 55.59541941 53.4947722 C65.7366189 63.65686928 75.87065984 73.82608245 86 84 C84.18725542 87.90816406 81.67185861 90.59751165 78.63232422 93.59472656 C78.08583221 94.14151062 77.53934021 94.68829468 76.97628784 95.25164795 C75.17378907 97.05275649 73.36431604 98.84668247 71.5546875 100.640625 C70.30157633 101.89000495 69.04890681 103.13982801 67.79666138 104.39007568 C64.50324045 107.67586872 61.20385709 110.9556107 57.90319824 114.23413086 C54.53471006 117.58214253 51.1718924 120.93583907 47.80859375 124.2890625 C41.21126824 130.86495296 34.60763017 137.43446516 28 144 C23.90507084 140.55286117 19.93506454 137.05875464 16.16015625 133.2578125 C15.32548828 132.41992188 14.49082031 131.58203125 13.63085938 130.71875 C12.78330078 129.8628125 11.93574219 129.006875 11.0625 128.125 C10.18787109 127.24585938 9.31324219 126.36671875 8.41210938 125.4609375 C6.27242952 123.3095654 4.13513403 121.15588208 2 119 C-1.87510608 120.58111922 -4.48673956 123.21187136 -7.37835693 126.1378479 C-8.17365086 126.93057856 -8.17365086 126.93057856 -8.98501134 127.73932397 C-10.76009449 129.51111331 -12.5279356 131.28995544 -14.29589844 133.06884766 C-15.56697865 134.34049201 -16.83849941 135.61169614 -18.11042786 136.88249207 C-21.5629209 140.33441069 -25.00920767 143.79246626 -28.45442867 147.2516408 C-32.05566619 150.86537078 -35.6625586 154.47344742 -39.26885986 158.0821228 C-46.09739816 164.91688022 -52.92082169 171.75672045 -59.74243093 178.59839284 C-67.50868662 186.38699406 -75.28061406 194.16992503 -83.05302763 201.95238042 C-99.04167925 217.96194384 -115.02318038 233.97862938 -131 250 C-125.81775312 256.27304321 -120.14824031 261.99348686 -114.39233398 267.73706055 C-113.32547704 268.8052747 -112.25883246 269.873701 -111.19238281 270.94232178 C-108.31259075 273.82664905 -105.4296731 276.70783272 -102.54602313 279.58830237 C-99.52129075 282.61049219 -96.49901121 285.63513338 -93.47633362 288.65937805 C-88.403418 293.73410928 -83.32840581 298.80673664 -78.25219727 303.87817383 C-72.38926845 309.73565533 -66.52995859 315.59673841 -60.67250389 321.45969361 C-55.63384987 326.50288909 -50.5932454 331.54412889 -45.55101258 336.58374625 C-42.54351079 339.58969172 -39.53668237 342.59630237 -36.5316143 345.60468102 C-33.70784656 348.43134268 -30.88163362 351.25553676 -28.05353546 354.0778656 C-27.01788638 355.1121955 -25.98308164 356.14737162 -24.94919777 357.18346596 C-23.53477089 358.6006373 -22.11694157 360.01441033 -20.69895935 361.42802429 C-19.51185694 362.61456116 -19.51185694 362.61456116 -18.30077267 363.82506847 C-15.96585931 366.03227336 -13.51744863 368.00600781 -11 370 C-9.33333333 371.66666667 -7.66666667 373.33333333 -6 375 C-4.6779795 376.01490866 -3.34653803 377.01785281 -2 378 C-1.443125 377.43152344 -0.88625 376.86304688 -0.3125 376.27734375 C3.31912573 372.6027765 6.94227807 368.97842057 10.875 365.625 C16.21083651 361.05605497 21.07728975 356.00415215 26 351 C30.09620634 352.62358696 32.83447899 355.56680396 35.87011719 358.64306641 C36.44616196 359.21881912 37.02220673 359.79457184 37.6157074 360.38777161 C39.51421037 362.28766537 41.40553522 364.19453991 43.296875 366.1015625 C44.61351582 367.42193434 45.93059957 368.74186464 47.24810791 370.06137085 C50.71145037 373.53234276 54.16874418 377.0092793 57.62481689 380.48748779 C61.1537998 384.03694385 64.6884642 387.58073201 68.22265625 391.125 C75.15401308 398.07779463 82.07899377 405.03690309 89 412 C87.59771936 415.17098328 85.94394221 417.30370777 83.49459839 419.74591064 C82.40504852 420.8395845 82.40504852 420.8395845 81.29348755 421.95535278 C80.49651459 422.74513519 79.69954163 423.5349176 78.87841797 424.34863281 C78.03931885 425.18802399 77.20021973 426.02741516 76.33569336 426.89224243 C74.03782233 429.18895972 71.73557743 431.48118096 69.43131018 433.7714777 C67.02274213 436.16753468 64.61984484 438.56926488 62.21633911 440.97039795 C57.66591044 445.51461297 53.11040801 450.0537061 48.55305874 454.59097934 C43.36415889 459.75751666 38.18094375 464.92974101 32.99819732 470.10244989 C22.33844297 480.74130483 11.67157395 491.37300007 1 502 C-0.11589473 501.05047176 -1.23079985 500.09978045 -2.34529114 499.14860535 C-2.96626081 498.61931521 -3.58723047 498.09002508 -4.2270174 497.54469585 C-6.48494272 495.57749782 -8.59866446 493.49704224 -10.69921875 491.36328125 C-11.92415039 490.12674805 -11.92415039 490.12674805 -13.17382812 488.86523438 C-14.00333984 488.02283203 -14.83285156 487.18042969 -15.6875 486.3125 C-17.35569019 484.61874368 -19.02617629 482.92724481 -20.69921875 481.23828125 C-21.42971436 480.49618408 -22.16020996 479.75408691 -22.9128418 478.98950195 C-24.94823338 476.95960341 -24.94823338 476.95960341 -27.26879883 475.36010742 C-27.84009521 474.91127197 -28.4113916 474.46243652 -29 474 C-29 473.34 -29 472.68 -29 472 C-29.99 471.67 -30.98 471.34 -32 471 C-33.71236149 469.3803168 -35.3711212 467.70361657 -37 466 C-37.98315166 465.01312002 -38.96923809 464.02915728 -39.95784473 463.04774189 C-40.49030931 462.51651071 -41.02277389 461.98527953 -41.57137376 461.43795043 C-42.42499082 460.58637974 -42.42499082 460.58637974 -43.29585266 459.71760559 C-44.57767375 458.43871706 -45.85948797 457.15982165 -47.14129639 455.88092041 C-47.82144051 455.20232719 -48.50158463 454.52373398 -49.20233917 453.82457733 C-64.83421604 438.22800717 -80.46043305 422.62577699 -96.08337116 407.02025318 C-105.11546001 397.9985021 -114.14943226 388.97865172 -123.18774414 379.96313477 C-131.07836101 372.09240804 -138.9654946 364.21821057 -146.8484084 356.33976859 C-151.0208521 352.16993786 -155.19505384 348.00190113 -159.37343788 343.83802223 C-163.29701321 339.92796083 -167.2159367 336.01329857 -171.13125038 332.09496498 C-172.5727386 330.65402953 -174.01595711 329.21482276 -175.46097946 327.77743149 C-177.42495856 325.82332202 -179.38276393 323.86323443 -181.33906555 321.90144348 C-181.9192972 321.32703752 -182.49952884 320.75263156 -183.09734327 320.16081935 C-187 316.22824351 -187 316.22824351 -187 314 C-187.66 314 -188.32 314 -189 314 C-190.2872467 312.69274902 -190.2872467 312.69274902 -191.84399414 310.78710938 C-197.05599167 304.66393285 -202.80176518 299.07438807 -208.49609375 293.40625 C-209.69700203 292.20721046 -210.897687 291.00794723 -212.09815979 289.80847168 C-215.23422285 286.67619792 -218.37327889 283.5469409 -221.51300049 280.41833496 C-224.72600001 277.2156273 -227.93611471 274.01003092 -231.14648438 270.8046875 C-237.42819371 264.53365211 -243.71307358 258.26580477 -250 252 C-248.50984249 248.53389762 -246.54061798 246.29183835 -243.88079643 243.63470078 C-243.01293223 242.76285448 -242.14506803 241.89100818 -241.25090492 240.9927423 C-240.28217625 240.02971962 -239.31335525 239.06678981 -238.3444519 238.10394287 C-237.31934797 237.07796695 -236.29468357 236.05155171 -235.2704221 235.02473474 C-232.4518351 232.20166879 -229.62703815 229.38488851 -226.8012073 226.56907606 C-223.75601969 223.53251273 -220.71660102 220.49018484 -217.67648315 217.44854736 C-212.40757131 212.17858602 -207.13500539 206.91230349 -201.85995102 201.64849091 C-194.2330824 194.03786552 -186.6117321 186.42173379 -178.99172415 178.80424002 C-166.62908739 166.4459822 -154.26198942 154.09219877 -141.89208984 141.74121094 C-129.87477535 129.74225006 -117.85955993 117.74119369 -105.84716797 105.73730469 C-105.10691851 104.99758068 -104.36666906 104.25785667 -103.6039878 103.49571678 C-99.89044502 99.78478405 -96.17694354 96.07380999 -92.46346259 92.36281538 C-61.648709 61.56880051 -30.82671647 30.78203896 0 0 Z " fill="#081D30" transform="translate(512,246)"/>
<path d="M0 0 C4.04294314 1.61497594 6.75332052 4.47973401 9.75799561 7.51748657 C10.32902708 8.0868092 10.90005856 8.65613183 11.48839402 9.24270666 C13.40167094 11.15268786 15.30770932 13.06973231 17.21386719 14.98681641 C18.58346834 16.35698165 19.95350994 17.72670675 21.32395935 19.09602356 C25.04503791 22.81652755 28.75991135 26.54317238 32.4737196 30.27093172 C36.35523074 34.16493267 40.24239416 38.05328277 44.12896729 41.94223022 C51.48874414 49.30822699 58.84340725 56.67930786 66.19625688 64.05221879 C74.56709737 72.44540237 82.94360744 80.83291779 91.32060385 89.21995664 C108.5533952 106.47366157 125.77903721 123.73448951 143 141 C139.22152362 145.5107269 135.32539622 149.81878993 131.15335083 153.96690369 C130.59694471 154.52416423 130.04053859 155.08142477 129.46727169 155.655572 C127.62263192 157.50184451 125.77446764 159.34454595 123.92626953 161.18725586 C122.59513724 162.51810578 121.26422571 163.84917653 119.93351746 165.18045044 C116.33498316 168.77927075 112.73338173 172.37500715 109.1312089 175.97018504 C105.36179037 179.73333736 101.59521789 183.49933613 97.82833862 187.26502991 C90.70130878 194.38895606 83.57173442 201.51033 76.44123542 208.63078362 C68.32077103 216.74005698 60.20315792 224.85218201 52.08577943 232.96454418 C35.39368345 249.64619755 18.6980218 266.32427841 2 283 C-1.8999362 281.19100725 -4.57693619 278.68593809 -7.56298828 275.64819336 C-8.10655975 275.10330765 -8.65013123 274.55842194 -9.21017456 273.99702454 C-11.00153291 272.19918743 -12.7858112 270.39448493 -14.5703125 268.58984375 C-15.81482831 267.33905653 -17.05986134 266.08878374 -18.3053894 264.83900452 C-21.58037902 261.55072025 -24.84975276 258.25691338 -28.11755371 254.96148682 C-33.35405723 249.68183667 -38.59732008 244.40892001 -43.84380722 239.13919258 C-45.67757305 237.2951823 -47.50790066 235.44780872 -49.33792114 233.6000824 C-50.4570996 232.47407823 -51.57638686 231.34818219 -52.69580078 230.22241211 C-53.46105072 229.44705612 -53.46105072 229.44705612 -54.24176025 228.65603638 C-56.86591302 225.99139825 -56.86591302 225.99139825 -60 224 C-60 223.34 -60 222.68 -60 222 C-60.66 222 -61.32 222 -62 222 C-62 221.34 -62 220.68 -62 220 C-60.50293446 218.52182293 -60.50293446 218.52182293 -58.44966125 216.8165741 C-54.3814297 213.35476875 -50.57483368 209.71670139 -46.80541992 205.93481445 C-46.13607422 205.26722107 -45.46672852 204.59962769 -44.77709961 203.9118042 C-42.59238827 201.73145059 -40.4113036 199.54751167 -38.23046875 197.36328125 C-36.70223841 195.83572538 -35.17385972 194.30831791 -33.64533997 192.78105164 C-30.45569931 189.59287943 -27.26785979 186.40292017 -24.08129883 183.21166992 C-19.99809552 179.12275042 -15.91039285 175.038363 -11.82134533 170.95528889 C-8.67029561 167.80785129 -5.52162972 164.65803763 -2.37368202 161.50749779 C-0.86693007 160.00007937 0.64056337 158.49340173 2.14881325 156.98748207 C4.25243567 154.88639893 6.35282652 152.78213749 8.45239258 150.67700195 C9.07423935 150.05717941 9.69608612 149.43735687 10.33677673 148.79875183 C12.65891383 146.46518991 14.82593456 144.23582815 16.78422546 141.58268738 C17.38603386 140.79925713 17.38603386 140.79925713 18 140 C18.66 140 19.32 140 20 140 C14.6598723 133.68141883 8.93902752 127.81843257 3.0625 122 C1.75055664 120.69482422 1.75055664 120.69482422 0.41210938 119.36328125 C-1.72297449 117.23986451 -3.86037205 115.11883622 -6 113 C-11.13989268 117.29817949 -15.93520353 121.80623958 -20.64770508 126.56591797 C-21.74169617 127.6645089 -21.74169617 127.6645089 -22.85778809 128.78529358 C-24.42917849 130.36379786 -25.99943965 131.94342695 -27.56867409 133.52407455 C-30.04960305 136.02247103 -32.53412719 138.51723993 -35.0196991 141.01101685 C-42.08178207 148.09749908 -49.13811634 155.18968578 -56.19018555 162.28613281 C-60.51230708 166.63495069 -64.83921688 170.97895566 -69.16916466 175.31998062 C-70.8189492 176.97599028 -72.46683172 178.633897 -74.11280251 180.29369736 C-76.40380684 182.60379783 -78.7007942 184.90778366 -80.99926758 187.21044922 C-81.6823851 187.90232834 -82.36550262 188.59420746 -83.06932068 189.30705261 C-83.69301544 189.92944321 -84.31671021 190.5518338 -84.95930481 191.19308472 C-85.50144528 191.7383676 -86.04358576 192.28365047 -86.60215473 192.84545708 C-88 194 -88 194 -90 194 C-91.364151 192.61584473 -91.364151 192.61584473 -92.98071289 190.65039062 C-97.48698882 185.35529675 -102.38071861 180.49416784 -107.30859375 175.59375 C-108.2853001 174.61891355 -109.26178234 173.64385251 -110.23805237 172.6685791 C-112.78227461 170.12813699 -115.32948736 167.59071491 -117.87738037 165.05395508 C-120.48715882 162.45448873 -123.09403482 159.85211506 -125.70117188 157.25 C-130.79797872 152.16385082 -135.89795508 147.0808953 -141 142 C-137.22152362 137.4892731 -133.32539622 133.18121007 -129.15335083 129.03309631 C-128.59694471 128.47583577 -128.04053859 127.91857523 -127.46727169 127.344428 C-125.62263192 125.49815549 -123.77446764 123.65545405 -121.92626953 121.81274414 C-120.59513724 120.48189422 -119.26422571 119.15082347 -117.93351746 117.81954956 C-114.33498316 114.22072925 -110.73338173 110.62499285 -107.1312089 107.02981496 C-103.36179037 103.26666264 -99.59521789 99.50066387 -95.82833862 95.73497009 C-88.70130878 88.61104394 -81.57173442 81.48967 -74.44123542 74.36921638 C-66.32077103 66.25994302 -58.20315792 58.14781799 -50.08577943 50.03545582 C-33.39368345 33.35380245 -16.6980218 16.67572159 0 0 Z " fill="#A88C3C" transform="translate(621,354)"/>
<path d="M0 0 C0 3.87454626 -1.55883402 4.91256664 -4.18844604 7.56170654 C-4.80559479 8.16806946 -5.42274353 8.77443237 -6.05859375 9.39916992 C-6.70232941 10.04334366 -7.34606506 10.6875174 -8.00930786 11.35121155 C-10.14500651 13.48481535 -12.29114528 15.60758937 -14.4375 17.73046875 C-15.9178881 19.2052634 -17.39761651 20.68072053 -18.87670898 22.15681458 C-22.77625801 26.04489521 -26.68473157 29.92388413 -30.59509277 33.80108643 C-34.58181518 37.75715107 -38.56008541 41.72169484 -42.5390625 45.68554688 C-50.35109739 53.46538241 -58.17258082 61.2356452 -66 69 C-60.81775312 75.27304321 -55.14824031 80.99348686 -49.39233398 86.73706055 C-48.32547704 87.8052747 -47.25883246 88.873701 -46.19238281 89.94232178 C-43.31259075 92.82664905 -40.4296731 95.70783272 -37.54602313 98.58830237 C-34.52129075 101.61049219 -31.49901121 104.63513338 -28.47633362 107.65937805 C-23.403418 112.73410928 -18.32840581 117.80673664 -13.25219727 122.87817383 C-7.38926845 128.73565533 -1.52995859 134.59673841 4.32749611 140.45969361 C9.36615013 145.50288909 14.4067546 150.54412889 19.44898742 155.58374625 C22.45648921 158.58969172 25.46331763 161.59630237 28.4683857 164.60468102 C31.29215344 167.43134268 34.11836638 170.25553676 36.94646454 173.0778656 C37.98211362 174.1121955 39.01691836 175.14737162 40.05080223 176.18346596 C41.46522911 177.6006373 42.88305843 179.01441033 44.30104065 180.42802429 C45.09244226 181.21904887 45.88384386 182.01007345 46.69922733 182.82506847 C48.9986967 185.07285333 48.9986967 185.07285333 51.73118496 187.09824848 C54 189 54 189 55 192 C51.25201537 190.43542724 48.85833191 188.11726873 45.99455261 185.26870728 C45.50448662 184.78387796 45.01442062 184.29904864 44.50950414 183.79952753 C42.87028274 182.17529635 41.23827757 180.54400588 39.60620117 178.91259766 C38.43198132 177.74599959 37.25735984 176.57980565 36.08236694 175.41398621 C32.89388598 172.24744697 29.71199943 169.07436144 26.53193069 165.89937639 C24.54626134 163.91734905 22.55929979 161.93662656 20.57189369 159.95634079 C13.64287286 153.05180711 6.71958486 146.14157811 -0.19897461 139.2265625 C-6.65605466 132.77312373 -13.12616556 126.33295266 -19.60230047 119.89864123 C-25.15766101 114.37790877 -30.7034253 108.8476589 -36.24184817 103.30993497 C-39.55190497 100.00067313 -42.86586343 96.69555455 -46.18967628 93.40010452 C-49.3123263 90.30350895 -52.42292807 87.19530932 -55.52450943 84.07761574 C-56.66708412 82.93321685 -57.81397688 81.79311119 -58.96536446 80.65757942 C-60.53183906 79.11137701 -62.08226036 77.55070355 -63.62947083 75.98526001 C-64.50274426 75.1139979 -65.3760177 74.24273579 -66.27575397 73.34507179 C-68 71 -68 71 -67.93964767 68.87745857 C-66.93322023 66.86657101 -65.929448 65.55975016 -64.33616638 63.97540283 C-63.7710434 63.40615585 -63.20592041 62.83690887 -62.62367249 62.25041199 C-61.68931618 61.33223442 -61.68931618 61.33223442 -60.73608398 60.39550781 C-60.08244873 59.74143448 -59.42881348 59.08736115 -58.75537109 58.41346741 C-56.59264674 56.25283342 -54.41948941 54.10301996 -52.24609375 51.953125 C-50.74471383 50.45734012 -49.2439948 48.96089162 -47.74391174 47.46380615 C-43.79342026 43.52477054 -39.83400252 39.5948268 -35.87268066 35.66668701 C-31.83223378 31.65692476 -27.80026315 27.63865949 -23.76757812 23.62109375 C-15.85334112 15.73903403 -7.92965139 7.86654995 0 0 Z " fill="#03050A" transform="translate(447,427)"/>
<path d="M0 0 C4.2666516 0.47008073 6.55411967 3.15072687 9.41113281 6.07055664 C9.93840973 6.59739548 10.46568665 7.12423431 11.00894165 7.66703796 C12.74754276 9.40772673 14.47528056 11.15879514 16.203125 12.91015625 C17.40744591 14.12007318 18.6124315 15.32932884 19.8180542 16.53794861 C22.98771423 19.71905685 26.14826162 22.90907153 29.30700684 26.10101318 C32.53255798 29.35726553 35.76663024 32.60503012 39 35.85351562 C45.34171079 42.22739016 51.67382881 48.61070451 58 55 C57.34 55.66 56.68 56.32 56 57 C52.30839979 53.98644881 48.92505839 51.03399163 45.85498047 47.38623047 C41.59674925 42.4596537 37.0076916 37.90043803 32.3828125 33.3203125 C31.0361702 31.97935013 31.0361702 31.97935013 29.662323 30.61129761 C26.81897215 27.78008209 23.97248243 24.95205831 21.125 22.125 C17.35377311 18.38060559 13.5861326 14.63264673 9.8203125 10.8828125 C8.51575607 9.59070358 8.51575607 9.59070358 7.18484497 8.27249146 C6.38666351 7.47761322 5.58848206 6.68273499 4.76611328 5.86376953 C4.06108673 5.1639798 3.35606018 4.46419006 2.62966919 3.74319458 C1 2 1 2 0 0 Z " fill="#1F272F" transform="translate(512,247)"/>
<path d="M0 0 C0 4.90620754 -2.66042063 7.76774663 -5.9609375 11.15625 C-7.09386809 12.27600698 -8.23202856 13.39049394 -9.375 14.5 C-9.93960938 15.05558594 -10.50421875 15.61117187 -11.0859375 16.18359375 C-13.65788829 18.71386941 -16.24016111 21.22897552 -18.8515625 23.71875 C-21.19618296 25.88820268 -21.19618296 25.88820268 -22 29 C-22.66 29 -23.32 29 -24 29 C-24 28.34 -24 27.68 -24 27 C-24.66 27 -25.32 27 -26 27 C-26 26.34 -26 25.68 -26 25 C-24.58398438 23.60522461 -24.58398438 23.60522461 -22.59375 21.96484375 C-17.63418911 17.74768627 -13.07671635 13.18766693 -8.5 8.5625 C-7.26636719 7.32209961 -7.26636719 7.32209961 -6.0078125 6.05664062 C-4.00287887 4.04005041 -2.00033747 2.02114764 0 0 Z " fill="#9B7A30" transform="translate(585,549)"/>
<path d="M0 0 C0.33 1.32 0.66 2.64 1 4 C-1.41783658 7.49159631 -4.79607364 10.28999215 -8.4375 12.4375 C-12.55623659 14.94892475 -15.67906535 18.53073576 -19 22 C-19.66 21.67 -20.32 21.34 -21 21 C-14.07 14.07 -7.14 7.14 0 0 Z " fill="#967429" transform="translate(614,520)"/>
<path d="M0 0 C0.99 0.33 1.98 0.66 3 1 C3 1.66 3 2.32 3 3 C3.58265625 3.268125 4.1653125 3.53625 4.765625 3.8125 C7.02786601 5.01480991 8.80576318 6.33825913 10.75 8 C11.67039062 8.7734375 11.67039062 8.7734375 12.609375 9.5625 C14 11 14 11 14 13 C15.32 13.66 16.64 14.32 18 15 C17.01 15.66 16.02 16.32 15 17 C12.82722286 14.88094537 10.66173092 12.75527122 8.5 10.625 C7.87996094 10.02171875 7.25992187 9.4184375 6.62109375 8.796875 C6.03457031 8.21679688 5.44804687 7.63671875 4.84375 7.0390625 C4.29912109 6.50490723 3.75449219 5.97075195 3.19335938 5.42041016 C2 4 2 4 2 2 C1.34 2 0.68 2 0 2 C0 1.34 0 0.68 0 0 Z " fill="#242E36" transform="translate(323,558)"/>
<path d="M0 0 C2.93230193 1.32120828 4.98664899 2.74638197 7.234375 5.0390625 C8.09482422 5.90917969 8.09482422 5.90917969 8.97265625 6.796875 C9.55917969 7.40015625 10.14570313 8.0034375 10.75 8.625 C11.35199219 9.23601563 11.95398438 9.84703125 12.57421875 10.4765625 C14.05405305 11.97988624 15.52764676 13.48934856 17 15 C16.34 15.66 15.68 16.32 15 17 C12.49195282 14.54976242 9.9949924 12.08852402 7.5 9.625 C6.78457031 8.92632813 6.06914062 8.22765625 5.33203125 7.5078125 C4.65527344 6.8375 3.97851562 6.1671875 3.28125 5.4765625 C2.65283203 4.85861816 2.02441406 4.24067383 1.37695312 3.60400391 C0 2 0 2 0 0 Z " fill="#222B31" transform="translate(462,697)"/>
<path d="M0 0 C3.18559952 1.39633107 5.23943845 3.04557493 7.625 5.5625 C10.04521959 8.14015389 10.04521959 8.14015389 13 10 C12.67 10.99 12.34 11.98 12 13 C7.82556637 9.49925018 3.6854506 6.02049157 0 2 C0 1.34 0 0.68 0 0 Z " fill="#202A31" transform="translate(340,575)"/>
<path d="M0 0 C-3.13605376 4.51591742 -6.1268348 6.6536612 -11 9 C-11.66 8.67 -12.32 8.34 -13 8 C-11.78719339 6.65176834 -10.55401909 5.32183918 -9.3125 4 C-8.62800781 3.2575 -7.94351563 2.515 -7.23828125 1.75 C-4.58663012 -0.3231932 -3.2828659 -0.36795695 0 0 Z " fill="#17232E" transform="translate(524,615)"/>
<path d="M0 0 C0 4.1592308 -2.24683568 6.14544435 -5 9 C-7.3125 10.875 -7.3125 10.875 -9 12 C-9.66 11.67 -10.32 11.34 -11 11 C-7.37 7.37 -3.74 3.74 0 0 Z " fill="#F6F8F8" transform="translate(554,375)"/>
<path d="M0 0 C0 3.66842255 -0.79029126 5.10451959 -3 8 C-5.6875 8.8125 -5.6875 8.8125 -8 9 C-7.04270084 7.87411986 -6.08412105 6.7493285 -5.125 5.625 C-4.59132813 4.99851562 -4.05765625 4.37203125 -3.5078125 3.7265625 C-2.38567993 2.44163349 -1.20628025 1.20628025 0 0 Z " fill="#96742B" transform="translate(585,549)"/>
<path d="M0 0 C0.99 0.33 1.98 0.66 3 1 C2.071875 1.763125 1.14375 2.52625 0.1875 3.3125 C-1.98276101 5.11848552 -4.05568065 6.9476629 -6 9 C-6.66 8.67 -7.32 8.34 -8 8 C-5.36 5.36 -2.72 2.72 0 0 Z " fill="#F7F8F7" transform="translate(549,711)"/>
<path d="M0 0 C3.21043882 1.38188453 5.04936365 2.92421903 7.25 5.625 C8.03117188 6.57246094 8.03117188 6.57246094 8.828125 7.5390625 C9.40820312 8.26222656 9.40820312 8.26222656 10 9 C6.06048404 7.15014033 3.21678125 4.92434659 0 2 C0 1.34 0 0.68 0 0 Z " fill="#13191E" transform="translate(570,304)"/>
<path d="M0 0 C0.33 0.66 0.66 1.32 1 2 C0.06694014 4.71435596 -0.62673377 5.78043163 -3.125 7.25 C-3.74375 7.4975 -4.3625 7.745 -5 8 C-5 5 -5 5 -2.5 2.3125 C-1.675 1.549375 -0.85 0.78625 0 0 Z " fill="#F4F6F5" transform="translate(540,720)"/>
<path d="M0 0 C3.36720387 1.39332574 4.9859524 2.9789286 7 6 C4 6 4 6 1.8125 4.125 C0 2 0 2 0 0 Z " fill="#262C34" transform="translate(502,619)"/>
<path d="M0 0 C0.66 0.66 1.32 1.32 2 2 C1 5 1 5 -0.875 6.1875 C-3 7 -3 7 -6 7 C-4.02 4.69 -2.04 2.38 0 0 Z " fill="#F5F7F6" transform="translate(598,330)"/>
</svg>
